<?xml version="1.0" encoding="UTF-8"?>
<svg id="Layer_2" data-name="Layer 2" xmlns="http://www.w3.org/2000/svg" viewBox="270 0 290 305">
  <defs>
    <style>
      .cls-1 {
        fill: #007d99;
      }
    </style>
  </defs>
  <g id="Layer_1-2" data-name="Layer 1">
    <path class="cls-1" d="M455.15,84.65c-1.46-7.24,6.27-10.61,16.24-12.63,9.97-2.02,16.71-1.57,18.18,5.67,1.46,7.24-2.91,18.52-12.88,20.54-9.97,2.02-20.08-6.35-21.54-13.58ZM341.15,153.1c2.91-12.47-27.42-30.22-39.89-33.13-12.47-2.91-21.18,5.71-24.09,18.19-2.91,12.47,1.07,24.06,13.54,26.98,12.47,2.91,47.52.44,50.44-12.03ZM353.81,135.69c8.4-3.13,7.01-27.69,3.89-36.09-3.13-8.4-11.53-10.14-19.93-7.01-8.4,3.13-13.62,9.94-10.49,18.34,3.13,8.4,18.14,27.89,26.54,24.76ZM559.79,209.56c0,25.94-10.74,49.31-30.24,65.81-19.86,16.81-47.49,25.7-79.9,25.7-15.24,0-29.67-2.83-42.87-8.4-13.6-5.74-25.53-14.24-35.48-25.27-8.24-9.14-14.95-19.86-20.03-31.94-13.48-31.99-7.35-68.89,15.48-95.05h0s-1.16,31.22-1.16,31.22c0,12.6,1.26,24.24,3.68,34.84,9.84-9.29,24.36-21.32,43.92-33.41,20.15-12.45,45.63-20.53,66.51-25.54-6.46-1.63-13.37-2.68-20.65-3.09-.67.02-1.31.02-1.92.02-2.64,0-4.64-.13-5.77-.22h-67.84c-12.57-15.23-18.09-35.12-14.97-54.62.25-1.58.54-3.15.87-4.7,1.25-5.93,3.07-11.66,5.38-17.09-8.61-4.65-14.37-13.91-13.97-24.48.52-13.59,11.4-24.7,24.98-25.5,9.61-.57,18.2,3.98,23.3,11.17,1.87-1.04,3.78-2.02,5.75-2.92,11.42-5.23,24.26-7.88,38.16-7.88.26,0,.52,0,.77,0,.23-10.36,8.9-18.63,19.41-18.19,9.38.39,17.11,7.87,17.78,17.24.25,3.51-.48,6.83-1.93,9.72,2.44,1.3,4.8,2.75,7.06,4.33,11.67,8.14,20.45,19.73,24.73,32.62,3.96,11.95,4,24.51.12,36.31-3.36,10.19-9.64,19.6-18.35,27.56,34.88,14.61,57.19,44.61,57.19,81.77ZM480.83,111.99c14.51-10.81,20.07-25.34,15.25-39.85-4.6-13.86-19.7-27.85-43.06-27.85-19.39,0-35.26,6.86-45.9,19.84-11.18,13.64-15.87,33.57-12.89,54.01h57.72c2.39,0,4.75.06,7.09.17,6.37-.25,15.51-1.65,21.78-6.32ZM465.16,209.99c24.77-12.1,50.06-15.73,66.39-16.69-2.76-10.04-8.09-18.92-15.54-26.27-15.52,2.32-60,10.22-89.12,28.22-24.63,15.22-40.33,30.3-47.77,38.27,6.2,11.62,14.4,21.04,24.36,27.95,10.82-13.37,32.93-37.43,61.67-51.48ZM533,219.37c-13.82.83-35.57,3.88-56.39,14.05-20.77,10.15-37.97,27.22-48.31,39.09,6.67,1.63,13.8,2.47,21.35,2.47,46.73,0,78.32-21.51,83.35-55.62Z"/>
  </g>
</svg>